<?xml version="1.0" encoding="utf-8"?>
<!-- Generator: Adobe Illustrator 16.0.0, SVG Export Plug-In . SVG Version: 6.00 Build 0)  -->
<!DOCTYPE svg PUBLIC "-//W3C//DTD SVG 1.1//EN" "http://www.w3.org/Graphics/SVG/1.1/DTD/svg11.dtd">
<svg version="1.1" xmlns="http://www.w3.org/2000/svg" xmlns:xlink="http://www.w3.org/1999/xlink" x="0px" y="0px"
	 width="213.004px" height="213px" viewBox="0 0 213.004 213" enable-background="new 0 0 213.004 213" xml:space="preserve">
<g id="link">
	<g display="none">
		<path display="inline" d="M213.004,35.503C213.004,15.899,197.11,0,177.505,0c-19.612,0-35.508,15.899-35.508,35.503
			c0,16.52,11.336,30.282,26.624,34.252v27.872h-27.881c-3.961-15.288-17.724-26.633-34.247-26.633S76.203,82.339,72.247,97.627
			H26.625v45.605C11.341,147.202,0,160.965,0,177.484C0,197.106,15.895,213,35.508,213c19.604,0,35.499-15.895,35.499-35.517
			c0-16.519-11.345-30.299-26.633-34.251v-27.855h27.872c3.957,15.288,17.72,26.625,34.247,26.625
			c16.523,0,30.295-11.336,34.247-26.625h45.631V69.755C201.661,65.803,213.004,52.032,213.004,35.503z M53.258,177.484
			c0,9.811-7.948,17.767-17.75,17.767c-9.811,0-17.759-7.956-17.759-17.767c0-9.793,7.948-17.75,17.759-17.75
			C45.31,159.734,53.258,167.69,53.258,177.484z M106.494,124.252c-9.807,0-17.754-7.956-17.754-17.75
			c0-9.811,7.947-17.758,17.754-17.758s17.754,7.948,17.754,17.758C124.248,116.296,116.3,124.252,106.494,124.252z M177.505,53.253
			c-9.811,0-17.759-7.956-17.759-17.75c0-9.811,7.948-17.749,17.759-17.749c9.802,0,17.75,7.938,17.75,17.749
			C195.255,45.297,187.307,53.253,177.505,53.253z"/>
	</g>
	<line display="none" stroke="#231F20" stroke-width="18" x1="178.005" y1="156" x2="178.005" y2="210"/>
	<line stroke="#231F20" stroke-width="18" x1="151.005" y1="183" x2="205.005" y2="183"/>
	<g>
		<polygon fill="#FFFFFF" stroke="#000000" stroke-width="10" stroke-miterlimit="10" points="198.005,5 14.005,5 106.005,166 		"/>
		<circle fill="#FFFFFF" stroke="#000000" stroke-width="10" stroke-miterlimit="10" cx="106.237" cy="187.092" r="21.16"/>
	</g>
</g>
<g id="select" display="none">
</g>
</svg>
