<?xml version="1.0" encoding="utf-8"?>
<!-- Generator: Adobe Illustrator 16.0.0, SVG Export Plug-In . SVG Version: 6.00 Build 0)  -->
<!DOCTYPE svg PUBLIC "-//W3C//DTD SVG 1.1//EN" "http://www.w3.org/Graphics/SVG/1.1/DTD/svg11.dtd">
<svg version="1.1" xmlns="http://www.w3.org/2000/svg" xmlns:xlink="http://www.w3.org/1999/xlink" x="0px" y="0px" width="325.5px"
	 height="314.668px" viewBox="0 0 325.5 314.668" enable-background="new 0 0 325.5 314.668" xml:space="preserve">
<g id="link">
</g>
<g id="select">
	<path fill="#231F20" d="M78.203,75.677c1.874-1.868,4.49-2.549,6.889-2.043l-0.031,0.092c0,0,135.042,24.533,149.596,28
		l-0.02,0.067c1.325,0.313,2.592,0.979,3.627,2.012c2.956,2.933,2.956,7.706,0,10.651c-0.402,0.384-1.451,1.165-1.451,1.165
		l-50.096,30.616l65.468,65.468l-32.101,32.087l-65.392-65.512c0,0-31.537,54.536-31.557,54.561c0,0-0.787,1.176-1.286,1.701
		c-2.941,2.936-7.715,2.936-10.645,0c-1.171-1.164-1.861-2.592-2.124-4.08l-10.465-41.435L76.232,82.63l-0.039,0.051
		C75.631,80.235,76.304,77.57,78.203,75.677L78.203,75.677z"/>
</g>
</svg>
