<?xml version="1.0" encoding="utf-8"?>
<!-- Generator: Adobe Illustrator 16.0.0, SVG Export Plug-In . SVG Version: 6.00 Build 0)  -->
<!DOCTYPE svg PUBLIC "-//W3C//DTD SVG 1.1//EN" "http://www.w3.org/Graphics/SVG/1.1/DTD/svg11.dtd">
<svg version="1.1" id="Layer_1" xmlns="http://www.w3.org/2000/svg" xmlns:xlink="http://www.w3.org/1999/xlink" x="0px" y="0px"
	 width="229.667px" height="232.333px" viewBox="0 0 229.667 232.333" enable-background="new 0 0 229.667 232.333"
	 xml:space="preserve">
<g>
	<rect x="54.705" y="91.192" opacity="0.5" width="27.295" height="48.105"/>
	<path d="M187.8,97.205h-6.823V79.167c0-3.306-2.701-6.013-6.013-6.013H42.68c-3.3,0-6.013,2.707-6.013,6.013v72.156
		c0,3.3,2.713,6.013,6.013,6.013h132.284c3.312,0,6.013-2.713,6.013-6.013v-18.038h6.823c2.866,0,5.202-2.349,5.202-5.214v-25.657
		C193.002,99.548,190.666,97.205,187.8,97.205z M168.951,145.31H48.692V85.179h120.259V145.31z"/>
</g>
</svg>
