<?xml version="1.0" encoding="utf-8"?>
<!-- Generator: Adobe Illustrator 16.0.0, SVG Export Plug-In . SVG Version: 6.00 Build 0)  -->
<!DOCTYPE svg PUBLIC "-//W3C//DTD SVG 1.1//EN" "http://www.w3.org/Graphics/SVG/1.1/DTD/svg11.dtd">
<svg version="1.1" id="Layer_1" xmlns="http://www.w3.org/2000/svg" xmlns:xlink="http://www.w3.org/1999/xlink" x="0px" y="0px"
	 width="259.444px" height="318.333px" viewBox="0 0 259.444 318.333" enable-background="new 0 0 259.444 318.333"
	 xml:space="preserve">
<g>
	<path d="M155.262,199.733H97.488v-5.778c0-9.83,1.114-17.812,3.345-23.946c2.229-6.131,5.549-11.73,9.958-16.8
		c4.409-5.067,14.315-13.988,29.723-26.759c8.21-6.689,12.315-12.821,12.315-18.396c0-5.573-1.649-9.906-4.941-12.999
		c-3.295-3.091-8.286-4.637-14.976-4.637c-7.198,0-13.151,2.383-17.865,7.146c-4.713,4.766-7.73,13.075-9.046,24.934L47.011,115.2
		c2.026-21.689,9.906-39.149,23.642-52.376c13.733-13.228,34.79-19.841,63.171-19.841c22.095,0,39.934,4.613,53.517,13.835
		c18.446,12.467,27.67,29.092,27.67,49.869c0,8.616-2.382,16.928-7.146,24.934c-4.765,8.008-14.496,17.788-29.191,29.343
		c-10.239,8.11-16.701,14.622-19.385,19.537C156.604,185.418,155.262,191.827,155.262,199.733z M95.511,231.089h61.879v54.582
		H95.511V231.089z"/>
</g>
</svg>
