<?xml version="1.0" encoding="utf-8"?>
<!-- Generator: Adobe Illustrator 16.0.0, SVG Export Plug-In . SVG Version: 6.00 Build 0)  -->
<!DOCTYPE svg PUBLIC "-//W3C//DTD SVG 1.1//EN" "http://www.w3.org/Graphics/SVG/1.1/DTD/svg11.dtd">
<svg version="1.1" xmlns="http://www.w3.org/2000/svg" xmlns:xlink="http://www.w3.org/1999/xlink" x="0px" y="0px"
	 width="215.001px" height="354.082px" viewBox="0 0 215.001 354.082" enable-background="new 0 0 215.001 354.082"
	 xml:space="preserve">
<g id="not">
</g>
<g id="or">
	<g>
		<path fill="#FFFFFF" stroke="#000000" stroke-width="10" stroke-miterlimit="10" d="M210.001,34.582c0,0-51.5,22.5-102.501,22.5
			c-51.999,0-102.499-22.5-102.499-22.5v113.074c0,0-0.506,42.816,22.125,85.426c18.146,34.162,56.979,70,80.563,70
			c24.924,0,62.69-34.201,81.405-71c20.707-40.715,20.906-84.426,20.906-84.426V34.582z"/>
		<path fill="none" stroke="#000000" stroke-width="10" stroke-miterlimit="10" d="M210.001,4.582c0,0-51.5,22.5-102.501,22.5
			c-51.999,0-102.499-22.5-102.499-22.5"/>
		<circle fill="#FFFFFF" stroke="#000000" stroke-width="10" stroke-miterlimit="10" cx="107.752" cy="326.082" r="23"/>
	</g>
</g>
<g id="and">
</g>
</svg>
